<?xml version="1.0" encoding="UTF-8" standalone="no"?>
<!DOCTYPE svg PUBLIC "-//W3C//DTD SVG 1.1//EN" "http://www.w3.org/Graphics/SVG/1.1/DTD/svg11.dtd">
<svg width="100%" height="100%" viewBox="0 0 40 40" version="1.1" xmlns="http://www.w3.org/2000/svg"
     xml:space="preserve"
     style="fill-rule:evenodd;clip-rule:evenodd;stroke-linejoin:round;stroke-miterlimit:2;">
    <g transform="matrix(1,0,0,1,0,-3)">
        <path d="M11.619,20.09C10.402,19.67 11.045,13.871 11.045,13.871C11.045,13.871 7.762,18.634 6.303,18.088C5.711,17.867 5.243,16.453 5.313,15.636C5.421,14.357 6.149,11.329 6.558,10.9C6.942,10.497 8.1,10.789 8.1,10.257C8.1,7.947 9.975,6.072 12.285,6.072C13.842,6.072 15.201,6.923 15.922,8.186C17.591,8.386 26.932,9.033 28.6,9.067C29.311,8.509 30.207,8.177 31.18,8.177C33.49,8.177 35.365,10.052 35.365,12.362C35.365,14.672 33.49,16.547 31.18,16.547C31.064,16.547 30.949,16.542 30.835,16.533C30.128,17.493 26.342,23.306 25.576,24.706C26.147,25.671 26.475,26.796 26.475,27.998C26.475,29.363 26.051,30.63 25.329,31.675L29.001,31.675C29.484,31.675 29.928,31.937 30.161,32.359L31.223,34.282C31.546,34.867 31.383,35.601 30.843,35.994C30.843,35.994 26.227,39.366 20,39.325C13.773,39.366 9.157,35.994 9.157,35.994C8.617,35.601 8.454,34.867 8.777,34.282L9.839,32.359C10.072,31.937 10.516,31.675 10.999,31.675L14.671,31.675C13.949,30.63 13.525,29.363 13.525,27.998C13.525,24.424 16.427,21.523 20,21.523C20.615,21.523 21.21,21.609 21.774,21.77C22.839,20.5 26.674,15.168 27.288,14.219C27.316,14.176 28.238,13.167 27.042,12.996C25.613,12.793 17.632,12.193 16.018,12.151C15.681,12.813 16.657,13.38 16.504,14.34C16.354,15.282 15.026,18.154 14.212,19.113C13.849,19.539 12.216,20.296 11.619,20.09Z" style="fill:none;stroke:rgb(206,208,214);stroke-width:2.8px;"/>
    </g>
</svg>
