<?xml version="1.0" encoding="UTF-8" standalone="no"?>
<!DOCTYPE svg PUBLIC "-//W3C//DTD SVG 1.1//EN" "http://www.w3.org/Graphics/SVG/1.1/DTD/svg11.dtd">
<svg width="100%" height="100%" viewBox="0 0 40 40" version="1.1" xmlns="http://www.w3.org/2000/svg"
     xml:space="preserve"
     style="fill-rule:evenodd;clip-rule:evenodd;stroke-linejoin:round;stroke-miterlimit:2;">
    <g transform="matrix(1,0,0,1,0,-3)">
        <g transform="matrix(0.467257,0.318181,-0.337172,0.495145,20.5956,6.37327)">
            <path d="M25.841,23.409L16.681,23.409C16.681,23.409 17.705,15.072 17.705,11.339C17.705,9.266 17.644,6.424 17.597,4.537C17.567,3.348 17.542,2.538 17.542,2.538L25.174,2.398C25.174,2.398 24.903,8.091 24.903,11.742C24.903,15.475 25.841,23.409 25.841,23.409Z" style="fill:rgb(99,99,99);"/>
        </g>
        <g transform="matrix(0.0268937,-0.391165,0.737427,0.0507003,12.1345,18.2985)">
            <path d="M26.538,23.115L15.814,21.552C15.814,21.552 16.728,15.955 16.728,12.438C16.728,8.846 16.135,2.472 16.135,2.472L26.574,2.388C26.574,2.388 25.84,9.208 25.84,12.801C25.84,16.316 26.538,23.115 26.538,23.115Z" style="fill:rgb(99,99,99);"/>
        </g>
        <path d="M29.001,31.675C29.484,31.675 29.928,31.937 30.161,32.359L31.223,34.282C31.546,34.867 31.383,35.601 30.843,35.994C30.843,35.994 26.227,39.366 20,39.325C13.773,39.366 9.157,35.994 9.157,35.994C8.617,35.601 8.454,34.867 8.777,34.282L9.839,32.359C10.072,31.937 10.516,31.675 10.999,31.675L29.001,31.675Z" style="fill:rgb(99,99,99);"/>
        <g transform="matrix(0.98749,0.157679,-0.157679,0.98749,2.62035,-1.46552)">
            <path d="M14.093,12.418L14.491,15.699C14.529,16.014 14.453,16.332 14.276,16.596L12.791,18.81C12.44,19.334 11.767,19.538 11.183,19.296C10.6,19.054 10.268,18.434 10.391,17.814C10.391,17.814 11.052,16.498 11.194,15.784C11.375,14.869 11.478,12.32 11.478,12.32C11.604,11.681 12.176,11.229 12.827,11.253C13.478,11.278 14.015,11.772 14.093,12.418Z" style="fill:rgb(99,99,99);"/>
        </g>
        <g transform="matrix(-0.845228,-0.534406,-0.534406,0.845228,27.6069,7.88752)">
            <path d="M11.478,12.32C11.478,12.32 11.286,14.68 11.104,15.596C10.965,16.3 10.391,17.814 10.391,17.814C10.268,18.434 10.6,19.054 11.183,19.296C11.767,19.538 12.44,19.334 12.791,18.81C12.791,18.81 13.813,17.034 14.096,16.516C14.244,16.246 14.325,15.926 14.311,15.618C14.281,14.922 14.093,12.418 14.093,12.418C14.015,11.772 13.478,11.278 12.827,11.253C12.176,11.229 11.604,11.681 11.478,12.32Z" style="fill:rgb(99,99,99);"/>
        </g>
    </g>
    <g transform="matrix(1,0,0,1,0,-3)">
        <g transform="matrix(1,0,0,1,-4.15813,-1.022)">
            <path d="M24.158,22.545C27.732,22.545 30.633,25.446 30.633,29.02C30.633,32.593 27.732,35.495 24.158,35.495C20.585,35.495 17.683,32.593 17.683,29.02C17.683,25.446 20.585,22.545 24.158,22.545ZM24.158,25.49C22.21,25.49 20.629,27.072 20.629,29.02C20.629,30.968 22.21,32.549 24.158,32.549C26.106,32.549 27.688,30.968 27.688,29.02C27.688,27.072 26.106,25.49 24.158,25.49Z" style="fill:rgb(191,136,20);"/>
        </g>
        <g transform="matrix(0.542299,0,0,0.542299,18.0788,-3.37545)">
            <path d="M24.158,21.302C28.418,21.302 31.876,24.76 31.876,29.02C31.876,33.279 28.418,36.737 24.158,36.737C19.899,36.737 16.441,33.279 16.441,29.02C16.441,24.76 19.899,21.302 24.158,21.302ZM24.158,26.733C22.896,26.733 21.871,27.758 21.871,29.02C21.871,30.282 22.896,31.307 24.158,31.307C25.42,31.307 26.445,30.282 26.445,29.02C26.445,27.758 25.42,26.733 24.158,26.733Z" style="fill:rgb(191,136,20);"/>
        </g>
        <g transform="matrix(0.542299,0,0,0.542299,-0.815776,-5.48048)">
            <path d="M24.158,21.302C28.418,21.302 31.876,24.76 31.876,29.02C31.876,33.279 28.418,36.737 24.158,36.737C19.899,36.737 16.441,33.279 16.441,29.02C16.441,24.76 19.899,21.302 24.158,21.302ZM24.158,26.733C22.896,26.733 21.871,27.758 21.871,29.02C21.871,30.282 22.896,31.307 24.158,31.307C25.42,31.307 26.445,30.282 26.445,29.02C26.445,27.758 25.42,26.733 24.158,26.733Z" style="fill:rgb(191,136,20);"/>
        </g>
    </g>
</svg>
