<?xml version="1.0" encoding="UTF-8" standalone="no"?>
<!DOCTYPE svg PUBLIC "-//W3C//DTD SVG 1.1//EN" "http://www.w3.org/Graphics/SVG/1.1/DTD/svg11.dtd">
<svg width="100%" height="100%" viewBox="0 0 40 40" version="1.1" xmlns="http://www.w3.org/2000/svg"
     xml:space="preserve"
     style="fill-rule:evenodd;clip-rule:evenodd;stroke-linejoin:round;stroke-miterlimit:2;">
    <g transform="matrix(1,0,0,1,0,-3)">
        <path d="M6.716,9.258C7.188,6.611 9.503,4.599 12.285,4.599C14.108,4.599 15.731,5.463 16.765,6.803C18.44,7 20.816,7.264 22.37,7.371C23.956,7.48 26.466,7.548 28.148,7.585C29.025,7.027 30.065,6.704 31.18,6.704C34.302,6.704 36.838,9.239 36.838,12.362C36.838,15.35 34.516,17.8 31.581,18.006C30.92,18.907 30.103,20.04 29.49,20.94C28.852,21.877 27.957,23.443 27.245,24.728C27.696,25.726 27.947,26.833 27.947,27.998C27.947,28.762 27.839,29.502 27.637,30.202L29.001,30.202C30.02,30.202 30.958,30.756 31.451,31.647L32.512,33.57C33.194,34.805 32.85,36.354 31.71,37.185C31.619,37.251 26.666,40.838 20,40.798C13.334,40.838 8.382,37.251 8.29,37.185C7.15,36.354 6.806,34.805 7.488,33.57L8.549,31.647C9.042,30.756 9.98,30.202 10.999,30.202C10.999,30.202 12.363,30.202 12.363,30.202C12.161,29.502 12.053,28.762 12.053,27.998C12.053,23.612 15.614,20.051 20,20.051C20.412,20.051 20.818,20.082 21.213,20.143C22.153,19.009 23.229,17.673 23.828,16.793C24.334,16.05 24.96,15.097 25.499,14.27C24.254,14.106 22.804,13.934 21.656,13.855C20.58,13.781 19.16,13.722 17.86,13.679C17.898,13.812 17.931,13.949 17.955,14.09C18.017,14.448 17.935,15.117 17.562,15.905C16.739,17.646 14.469,20.738 14.469,20.738C14.436,20.783 14.4,20.825 14.363,20.866C13.455,21.843 11.984,22.043 10.848,21.344C9.712,20.646 9.227,19.243 9.689,17.992C9.724,17.896 9.77,17.804 9.824,17.717L10.882,15.731C10.532,15.545 10.112,15.35 9.723,15.191L9.23,17.07C9.213,17.153 9.19,17.235 9.159,17.315C8.679,18.558 7.387,19.291 6.073,19.064C4.759,18.837 3.788,17.715 3.752,16.382C3.749,16.279 3.757,16.176 3.776,16.075C3.776,16.075 4.39,12.763 4.851,11.211C5.059,10.508 5.339,10.044 5.492,9.884C5.717,9.648 6.009,9.463 6.36,9.345C6.453,9.314 6.581,9.284 6.716,9.258ZM20,23.29C17.402,23.29 15.292,25.4 15.292,27.998C15.292,30.596 17.402,32.705 20,32.705C22.598,32.705 24.708,30.596 24.708,27.998C24.708,25.4 22.598,23.29 20,23.29ZM12.285,7.839C10.951,7.839 9.867,8.922 9.867,10.257C9.867,11.592 10.951,12.675 12.285,12.675C13.62,12.675 14.703,11.592 14.703,10.257C14.703,8.922 13.62,7.839 12.285,7.839ZM31.18,9.944C29.845,9.944 28.762,11.027 28.762,12.362C28.762,13.697 29.845,14.78 31.18,14.78C32.514,14.78 33.598,13.697 33.598,12.362C33.598,11.027 32.514,9.944 31.18,9.944Z" style="fill:rgb(175,177,179);"/>
    </g>
</svg>
